<svg xmlns="http://www.w3.org/2000/svg" width="50" height="48.684" viewBox="240.66 1274.985 50 48.684"><path d="M265.712 1284.845c-6.758 1.224-11.163 3.739-14.039 6.099a17.229 17.229 0 0 0-.57 4.327c0 10.013 8.548 18.129 19.091 18.129a18.79 18.79 0 0 0 4.482-.551c3.046-3.86 5.537-10.579 6.172-16.14.666-5.82 1.99-7.582 3.638-8.73.585-.408 1.2-.72 1.849-.868-1.853-3.962-5.094-7.076-9.282-8.705.01.046.03.084.04.13.796 3.402-2.832 4.762-11.38 6.31Zm23.302 5.788a6.281 6.281 0 0 1-.202-.447c-1.24-3.04-4.223-1.07-5.01.718-1.55 3.521-1.323 5.059-1.951 8.628-.629 3.57-2.793 10.44-5.907 13.968-4.448 5.038-9.315 7.277-16.138 6.625-6.823-.651-12.082-6.437-14.029-10.63-1.633-3.52-1.88-7.511.052-12.684 1.932-5.174 7.728-9.38 13.027-11.402 5.298-2.022 9.492-2.22 12.447-3.08 2.956-.863 4.698-2.283 4.589-3.492-.136-1.5-1.581-2.298-2.398-2.632a25.582 25.582 0 0 0-7.834-1.22c-13.807 0-25 10.898-25 24.342 0 13.444 11.193 24.342 25 24.342 13.808 0 25-10.898 25-24.342a23.761 23.761 0 0 0-1.646-8.694Z" fill="#fff" fill-rule="evenodd" data-name="cinema4d-svgrepo-com"/></svg>