<svg xmlns="http://www.w3.org/2000/svg" width="174.994" height="28.125" viewBox="14863.051 1100.375 174.994 28.125"><g data-name="Multiple Layers (8)"><path d="m14876.605 1128.147-7.577-12.85v12.85h-5.977v-27.186h9.766c1.315-.022 2.624.19 3.867.625 1.09.36 2.098.93 2.968 1.68.819.7 1.46 1.583 1.875 2.577a8.017 8.017 0 0 1 .664 3.242c0 2.032-.547 3.711-1.68 5a8.87 8.87 0 0 1-4.374 2.695l7.226 11.367h-6.758Zm-.39-19.1c0-.938-.313-1.68-.977-2.266a3.638 3.638 0 0 0-2.421-.82h-3.79v6.563h3.79c1.054 0 1.874-.313 2.46-.938.625-.626.938-1.446.938-2.54" fill="#fff" fill-rule="evenodd" data-name="Path 1788"/><path d="M14886.136 1128.147v-27.186h15.86V1106h-9.883v6.367h9.179v5.038h-9.18v5.742h10.43v5.04h-16.406v-.04Z" fill="#fff" fill-rule="evenodd" data-name="Path 1789"/><path d="M14928.713 1114.515c0 2.226-.39 4.218-1.172 5.898a12.04 12.04 0 0 1-3.164 4.258 13.676 13.676 0 0 1-4.53 2.578 15.908 15.908 0 0 1-5.273.898h-8.243v-27.186h8.242a16.71 16.71 0 0 1 5.468.86 12.45 12.45 0 0 1 7.54 6.874c.78 1.68 1.132 3.632 1.132 5.82m-6.133 0a9.487 9.487 0 0 0-.586-3.36 7.805 7.805 0 0 0-1.64-2.695 7.887 7.887 0 0 0-2.54-1.796 8.017 8.017 0 0 0-3.242-.664h-2.265v17.147h2.266a8.013 8.013 0 0 0 3.398-.703 7.739 7.739 0 0 0 4.063-4.61 10.75 10.75 0 0 0 .546-3.32Z" fill="#fff" fill-rule="evenodd" data-name="Path 1790"/><path d="M14949.728 1118.773h9.609a9.024 9.024 0 0 1-1.328 3.086c-.65.994-1.47 1.867-2.422 2.578a10.457 10.457 0 0 1-3.203 1.68 11.74 11.74 0 0 1-3.71.624 13.229 13.229 0 0 1-4.884-.86 11.86 11.86 0 0 1-3.906-2.46 11.407 11.407 0 0 1-2.578-3.828 13.013 13.013 0 0 1-.937-5.039 12.45 12.45 0 0 1 .937-4.844 11.988 11.988 0 0 1 6.446-6.522 12.444 12.444 0 0 1 4.843-.937c.863 0 1.725.066 2.578.195.763.125 1.51.335 2.227.625.72.293 1.402.674 2.03 1.133.7.53 1.354 1.117 1.954 1.757l.078.078 1.289-1.328-.078-.078a13.088 13.088 0 0 0-4.297-3.125c-1.64-.742-3.555-1.132-5.664-1.132a13.972 13.972 0 0 0-5.586 1.093 15.04 15.04 0 0 0-4.53 3.008 14.145 14.145 0 0 0-4.18 10.038c0 2.07.352 3.945 1.094 5.664a13.52 13.52 0 0 0 3.046 4.414 14.726 14.726 0 0 0 4.532 2.89 15.637 15.637 0 0 0 5.624 1.016 12.852 12.852 0 0 0 8.867-3.398 12.357 12.357 0 0 0 2.734-3.633 11.342 11.342 0 0 0 1.133-4.375v-.117h-11.718v1.797Z" fill="#fff" fill-rule="evenodd" data-name="Path 1791"/><path d="M14966.016 1100.883h1.875v27.225h-1.875v-27.225z" fill="#fff" fill-rule="evenodd" data-name="Rectangle 280"/><path d="M14983.125 1100.453h-1.094l-10.038 27.5-.079.155h2.032l3.71-10.352h9.805l3.672 10.273.039.079h2.03l-10.038-27.577-.039-.078Zm3.75 15.625h-8.593l4.296-12.031 4.297 12.03Z" fill="#fff" fill-rule="evenodd" data-name="Path 1792"/><path d="M15016.64 1124.515c-.008.222.005.444.038.664v.156l-17.108-24.336-.04-.039h-2.265v27.226h1.914v-24.569l17.265 24.491.04.04h2.108v-27.226h-1.914v23.593h-.039Z" fill="#fff" fill-rule="evenodd" data-name="Path 1793"/><path d="M15022.538 1100.883v1.718h6.874v25.547h1.875V1102.6h6.758v-1.718h-15.507Z" fill="#fff" fill-rule="evenodd" data-name="Path 1794"/></g></svg>