<svg xmlns="http://www.w3.org/2000/svg" width="50" height="43.893" viewBox="0.501 31.707 50 43.893"><path d="M26.183 36.75c-.191-.955.053-1.946.713-2.972.782-1.234 1.703-1.911 2.764-2.05 1.373-.157 2.642.573 3.824 2.155 1.095 1.477 1.582 2.868 1.46 4.137-.018.765-1.147 1.234-3.39 1.39-1.755.14-3.024-.035-3.842-.539-.851-.504-1.355-1.216-1.53-2.12Zm24.231 38.678c-.121.26-.555.225-1.303-.105-1.27-.608-2.677-1.53-4.259-2.782-1.756-1.39-2.782-2.485-3.06-3.285-.051-.191-.034-.434.07-.747l.33-.887c.226-.817-.07-1.633-.886-2.451-.4-.4-.938-.782-1.6-1.147-1.546-.817-3.771-1.512-6.709-2.069-3.042-.573-5.944-.903-8.708-.973l-3.355.174a119.797 119.797 0 0 1-2.556 2.868 55.487 55.487 0 0 1-2.033 2.034c-2.66 2.381-5.25 4.19-7.788 5.44-3.459 1.687-6.049 2.173-7.805 1.426-.225-.156-.295-.417-.225-.782l.312-.974c1.2-2.607 3.164-4.989 5.858-7.144.226-.191.47-.365.696-.539 2.138-1.582 5.023-3.25 8.656-4.971 2.381-1.026 4.346-1.703 5.876-2.034l1.442-1.999a34.086 34.086 0 0 1 1.79-2.034c1.304-1.408 2.642-2.711 4.051-3.876.121-.052.14-.122.069-.209-.712-.4-1.877-1.147-3.458-2.242-1.357-.921-2.417-1.564-3.182-1.913-2.399-1.077-4.85-.764-7.37.94-1.513 1.007-2.33 2.12-2.416 3.337l-.087 1.495c.087.417-1.252 1.112-3.998 2.086-.504.156-.921.295-1.27.382-.608.122-1.025.14-1.233.035l-.07-.035-.19-.122c-.244-.486.903-2.155 3.424-5.023.174-.195.35-.384.526-.57l.006-.008.006-.004c4.563-4.8 9.945-6.658 16.131-5.554 1.703.295 4.52 1.338 8.466 3.112.434-.435 1.182-.957 2.207-1.548 1.304-.747 2.382-1.147 3.199-1.164 1.79-.018 2.92.66 3.39 2.068.277.852-.349 2.052-1.895 3.599-1.6 1.634-3.112 2.659-4.537 3.076-1.79.54-3.738.226-5.806-.903-.92.712-1.964 1.738-3.094 3.041-.052.052-.104.122-.156.174l-2.677 3.199-.035.225L27 55.976c1.322.035 2.66.26 4.033.695 3.738 1.2 6.866 2.677 9.386 4.433 1.2.851 2.365 1.825 3.46 2.92a34.041 34.041 0 0 1 3.25 3.841 28.298 28.298 0 0 1 2.312 3.79c.904 1.773 1.234 3.025.973 3.773ZM36.717 44.973c.33.26 1.112.365 2.382.313 1.407-.052 2.364-.33 2.902-.87.261-.26.261-.52-.034-.764-.33-.296-.939-.365-1.808-.244-.748.122-1.547.382-2.416.783-.852.4-1.2.66-1.026.782ZM17.753 61.625l-.4-.052c-1.2.244-2.312.522-3.337.835A30.169 30.169 0 0 0 10 64.024c-.99.47-1.912.991-2.764 1.547-2.712 1.756-3.963 3.46-3.737 5.11l.26.296c.713.47 2.121.104 4.207-1.095 2.834-1.65 5.371-3.598 7.614-5.858a40.927 40.927 0 0 0 2.173-2.399Z" fill="#fff" fill-rule="evenodd" data-name="Path 1773"/></svg>