<svg xmlns="http://www.w3.org/2000/svg" width="50" height="48.684"><path d="M14.202 20.179a.436.436 0 0 1-.044.176c-.527.791-1.407 1.627-1.89 1.89a.478.478 0 0 1-.22.044H6.816a.589.589 0 0 1-.22-.044c-.528-.263-1.407-1.099-1.934-1.89-.044-.044-.044-.22-.044-.22V.175H0v20.048c-.021.887.224 1.76.704 2.506.527.747 2.286 2.638 3.21 3.165.823.498 1.763.77 2.725.792h5.584a5.474 5.474 0 0 0 2.682-.792c.966-.527 2.682-2.418 3.21-3.165.479-.746.724-1.62.703-2.506V.174h-4.617V20.18Zm29.193 6.287V.174h-4.616v17.674L29.766.174h-4.968v26.292h4.616V9.012l9.101 17.454h4.88ZM54.342.174h-4.616v26.292h4.616V.174Zm26.073 0h-4.88l-6.508 20.357L62.564.174H57.64l8.662 26.292h5.407L80.415.174Zm19.784 26.292v-4.397H88.284v-6.463h11.08V11.21h-11.08V4.572H100.2V.174H83.67v26.292h16.53Zm24.797-16.355V6.24a4.898 4.898 0 0 0-.792-2.681c-.7-.891-1.496-1.702-2.374-2.418a5.681 5.681 0 0 0-3.121-.967h-12.355v26.29h4.617V16.09h5.056l4.88 10.376h5.012l-5.232-10.728a4.13 4.13 0 0 0 1.144-.616c.616-.44 1.979-1.758 2.375-2.33a4.793 4.793 0 0 0 .79-2.68m-4.617-.044a.457.457 0 0 1-.044.176c-.351.615-1.23 1.45-1.626 1.45h-7.738V4.573h7.958c.44.044 1.143.923 1.406 1.407.031.1.046.203.044.308v3.78Zm29.09 10.156v-2.77c0-1.978-1.188-4.177-3.43-4.792l-11.475-3.342c-.22-.044-.483-.351-.483-.747V6.374c0-.352 1.187-1.583 1.89-1.935a.638.638 0 0 1 .264-.044h6.2c.219 0 .263.044.263.044.923.572 1.934 2.023 1.934 2.023l4.44-1.275a8.338 8.338 0 0 0-.879-1.539C147.05 2.154 145.248 0 142.61 0h-6.507c-.966 0-2.022.396-2.726.791-.923.528-2.726 2.375-3.254 3.166-.528.791-.66 1.758-.66 2.506v2.373c0 2.022 1.188 4.176 3.43 4.792l11.431 3.254a.79.79 0 0 1 .528.747v2.594c0 .351-1.32 1.67-1.979 2.022a.638.638 0 0 1-.264.044h-7.21a.76.76 0 0 1-.307-.044 10.693 10.693 0 0 1-1.935-2.022l-4.352 1.45c.225.477.49.933.792 1.364 1.143 1.538 2.99 3.648 5.583 3.648h7.65c.923 0 2.022-.396 2.725-.791.924-.528 2.682-2.375 3.21-3.166.573-.79.703-1.758.703-2.505Zm21.019 6.243V22.07h-11.915v-6.463h11.08V11.21h-11.08V4.572h11.915V.174h-16.531v26.292h16.53Z" fill="#fff" fill-rule="evenodd" data-name="Path 1795"/></svg>