<svg xmlns="http://www.w3.org/2000/svg" width="49" height="49" viewBox="15481.5 1092.5 49 49"><g data-name="Multiple Layers (2)"><path d="M15492.28 1092.5h27.44a10.78 10.78 0 0 1 10.78 10.78v27.44a10.78 10.78 0 0 1-10.78 10.78h-27.44a10.78 10.78 0 0 1-10.78-10.78v-27.44a10.78 10.78 0 0 1 10.78-10.78z" stroke-linejoin="round" stroke-linecap="round" stroke="#fff" fill="transparent" data-name="Rectangle 286" stroke-width=".98"/><path d="M15506 1103.5h9a4.5 4.5 0 0 1 4.5 4.5v9a13.5 13.5 0 0 1-13.5 13.5h0a13.5 13.5 0 0 1-13.5-13.5h0a13.5 13.5 0 0 1 13.5-13.5z" stroke-linejoin="round" stroke-linecap="round" stroke-width="2.7" stroke="#fff" fill="transparent" data-name="Rectangle 287"/></g></svg>