<svg xmlns="http://www.w3.org/2000/svg" width="50" height="48.684" viewBox="14647.303 1089.306 44.697 50"><g data-name="Multiple Layers (12)"><g data-name="Group 587"><g data-name="Group 586"><g data-name="Group 585" transform="translate(14669.651 1089.306)" clip-path="url(&quot;#a&quot;)"><path d="M22.348 12.5 0 0v12.5l11.174 6.25 11.174-6.25Z" fill="#fff" fill-rule="evenodd" data-name="Path 1774"/></g></g></g><g data-name="Group 590"><g data-name="Group 589"><g data-name="Group 588" transform="translate(14647.303 1089.306)" clip-path="url(&quot;#b&quot;)"><path d="M0 12.5 22.348 0v12.5l-11.174 6.25L0 12.5Z" fill="#fff" fill-rule="evenodd" data-name="Path 1775"/></g></g></g><g data-name="Group 593"><g data-name="Group 592"><g data-name="Group 591" transform="translate(14669.651 1101.806)" clip-path="url(&quot;#c&quot;)"><path d="M11.174 6.25 0 12.5V0l11.174 6.25Z" fill="#fff" fill-rule="evenodd" data-name="Path 1776"/></g></g></g><g data-name="Group 596"><g data-name="Group 595"><g data-name="Group 594" transform="translate(14658.477 1101.806)" clip-path="url(&quot;#d&quot;)"><path d="m0 6.25 11.174 6.25V0L0 6.25Z" fill="#fff" fill-rule="evenodd" data-name="Path 1777"/></g></g></g><g data-name="Group 599"><g data-name="Group 598"><g data-name="Group 597" transform="translate(14669.651 1114.306)" clip-path="url(&quot;#e&quot;)"><path d="M0 12.5V0l11.174 6.25L0 12.5Z" fill="#fff" fill-rule="evenodd" data-name="Path 1778"/></g></g></g><g data-name="Group 602"><g data-name="Group 601"><g data-name="Group 600" transform="translate(14658.477 1114.306)" clip-path="url(&quot;#f&quot;)"><path d="M11.174 12.5V0L0 6.25l11.174 6.25Z" fill="#fff" fill-rule="evenodd" data-name="Path 1779"/></g></g></g><g data-name="Group 605"><g data-name="Group 604"><g data-name="Group 603" transform="translate(14647.303 1120.556)" clip-path="url(&quot;#g&quot;)"><path d="M22.348 18.75V6.25L11.174 0 0 6.25l22.348 12.5Z" fill="#fff" fill-rule="evenodd" data-name="Path 1780"/></g></g></g><g data-name="Group 608"><g data-name="Group 607"><g data-name="Group 606" transform="translate(14680.825 1114.306)" clip-path="url(&quot;#h&quot;)"><path d="M11.174 0v12.5L0 6.25 11.174 0Z" fill="#fff" fill-rule="evenodd" data-name="Path 1781"/></g></g></g><g data-name="Group 614"><g data-name="Group 613"><g data-name="Group 612" transform="translate(14669.65 1108.056)" clip-path="url(&quot;#i&quot;)"><path d="M22.347 6.25 11.174 0 0 6.25l11.174 6.25 11.173-6.25Z" fill="#fff" fill-rule="evenodd" data-name="Path 1783"/></g></g></g><g data-name="Group 617"><g data-name="Group 616"><g data-name="Group 615" transform="translate(14647.305 1108.056)" clip-path="url(&quot;#j&quot;)"><path d="M0 6.25 11.173 0l11.174 6.25-11.174 6.25L0 6.25Z" fill="#fff" fill-rule="evenodd" data-name="Path 1784"/></g></g></g><g data-name="Group 620"><g data-name="Group 619"><g data-name="Group 618" transform="translate(14680.824 1101.806)" clip-path="url(&quot;#k&quot;)"><path d="M11.174 0v12.5L0 6.25 11.174 0Z" fill="#fff" fill-rule="evenodd" data-name="Path 1785"/></g></g></g><g data-name="Group 626"><g data-name="Group 625"><g data-name="Group 624" transform="translate(14669.651 1120.556)" clip-path="url(&quot;#l&quot;)"><path d="M0 18.75V6.25L11.174 0l11.174 6.25L0 18.75Z" fill="#fff" fill-rule="evenodd" data-name="Path 1787"/></g></g></g></g><defs><clipPath id="a"><path d="M0 0h22.349v18.75H0V0z" data-name="Rectangle 264"/></clipPath><clipPath id="b"><path d="M0 0h22.348v18.75H0V0z" data-name="Rectangle 265"/></clipPath><clipPath id="c"><path d="M0 0h11.174v12.5H0V0z" data-name="Rectangle 266"/></clipPath><clipPath id="d"><path d="M0 0h11.174v12.5H0V0z" data-name="Rectangle 267"/></clipPath><clipPath id="e"><path d="M0 0h11.174v12.5H0V0z" data-name="Rectangle 268"/></clipPath><clipPath id="f"><path d="M0 0h11.174v12.5H0V0z" data-name="Rectangle 269"/></clipPath><clipPath id="g"><path d="M0 0h22.348v18.75H0V0z" data-name="Rectangle 270"/></clipPath><clipPath id="h"><path d="M0 0h11.174v12.5H0V0z" data-name="Rectangle 271"/></clipPath><clipPath id="i"><path d="M0 0h22.347v12.5H0V0z" data-name="Rectangle 273"/></clipPath><clipPath id="j"><path d="M0 0h22.347v12.5H0V0z" data-name="Rectangle 274"/></clipPath><clipPath id="k"><path d="M0 0h11.173v12.5H0V0z" data-name="Rectangle 275"/></clipPath><clipPath id="l"><path d="M0 0h22.349v18.75H0V0z" data-name="Rectangle 277"/></clipPath></defs></svg>